<?xml version="1.0" encoding="utf-8"?>
<!-- Generator: Adobe Illustrator 28.0.0, SVG Export Plug-In . SVG Version: 6.00 Build 0)  -->
<svg version="1.1" id="Layer_1" xmlns="http://www.w3.org/2000/svg" xmlns:xlink="http://www.w3.org/1999/xlink" x="0px" y="0px"
	 viewBox="0 0 1335.8 612" style="enable-background:new 0 0 1335.8 612;" xml:space="preserve">
<style type="text/css">
	.st0{fill:#0740B4;}
</style>
<g>
	<path class="st0" d="M746.3,397c-4.2,6.6-8.5,13.2-12.4,20c-3,5.2-7.1,7.5-13.2,7.3c-20.1-0.5-17.3,2.8-29.1-16.3
		c-2.1-3.4-4.2-6.7-6.5-10.3c-1.7,2.3-1.1,4.3-1.1,6.1c-0.1,16.4,0,32.7-0.1,49.1c0,8.7-2.8,11.5-11.4,11.5
		c-11.6,0.1-23.1,0.1-34.7,0c-8.8-0.1-11-2.4-11-11c0-48.3,0-96.6,0-144.9c0-8.6,2.1-10.7,10.5-10.7c10.6,0,21.2,0.2,31.8-0.1
		c6.3-0.1,10.4,2.5,13.6,7.9c9.8,16.6,20,32.9,29.8,49.5c2.6,4.4,3.7,4,6.2-0.1c9.4-15.9,19.3-31.5,28.5-47.5c4-6.9,9-10.3,17.3-9.8
		c10,0.6,20.1,0.1,30.1,0.2c7.4,0.1,9.9,2.3,9.9,9.6c0.1,49.1,0.1,98.1,0,147.2c0,6.9-2.4,9.6-9.3,9.7c-12.7,0.3-25.5,0.3-38.2,0
		c-7-0.1-9.6-3-9.6-10.2c-0.1-18.8,0-37.7,0-56.5C747,397.4,746.7,397.2,746.3,397z"/>
	<path class="st0" d="M1018.4,363.8c0-17.7,0-35.4,0-53c0-11.4,1.6-13.1,13-13.1c11.6,0,23.1-0.1,34.7,0c7,0.1,9.4,2.5,9.5,9.4
		c0.1,49.1,0.1,98.1,0,147.2c0,7.1-2.5,9.7-9.8,9.9c-11,0.2-22,0.1-33,0c-5.6,0-9.7-2.7-12.9-7.5c-11.1-16.9-22.4-33.7-33.6-50.5
		c-1.1-1.6-2.2-3.1-3.4-4.8c-1.7,1.6-0.9,3.4-0.9,5c-0.1,16,0,31.9-0.1,47.9c0,7.4-2.2,9.8-9.6,9.9c-12.3,0.2-24.7,0.2-37,0
		c-7.3-0.1-9.7-2.6-9.7-9.9c0-49.1,0-98.1,0-147.2c0-7.4,2.1-9.5,9.8-9.5c11-0.1,22,0.1,33-0.1c5.8-0.1,9.8,2.3,12.8,7.3
		c11.9,19.8,24,39.4,36,59.1C1017.6,364,1018,363.9,1018.4,363.8z"/>
	<path class="st0" d="M1105,381.2c0-24.3,0-48.5,0-72.8c0-8.8,1.8-10.7,10.4-10.7c38,0,76,0,114,0c8.4,0,10.5,2.1,10.5,10.7
		c0,8.5,0,16.9,0,25.4c0,9.3-2.1,11.5-11.6,11.5c-14.7,0.1-29.3,0-44,0c-4.8,0-9.7,0.2-14.5-0.1c-5.1-0.3-6.7,1.9-6.7,6.8
		s1.4,6.9,6.6,6.8c18.3-0.2,36.7-0.1,55-0.1c8,0,10.3,2.2,10.4,10.3c0.1,7.7,0.1,15.4,0,23.1c-0.1,8.7-2.4,11-11,11.1
		c-17.9,0.1-35.9,0.2-53.8-0.1c-5.2-0.1-7.2,1.4-7.2,6.9c0,5.7,2.4,6.7,7.4,6.7c20.1-0.2,40.1-0.1,60.2-0.1
		c9.2,0,11.4,2.1,11.4,11.1c0.1,8.7,0.1,17.3,0,26c-0.1,7.6-2.5,10.5-9.9,10.5c-39.4,0.1-78.7,0.1-118.1,0c-6.8,0-9.1-2.7-9.1-9.8
		C1105,430.1,1105,405.6,1105,381.2z"/>
	<path class="st0" d="M719.4,218.8c-3.1,5-6.2,10.1-9.4,15c-6.6,10-24,9.9-30.5-0.2c-3.1-4.8-6-9.8-9.2-15.2c-1.6,2.1-1,4.1-1,5.8
		c-0.1,13.1,0,26.2,0,39.3c0,7-1.2,8.2-8,8.3c-9.8,0.1-19.7,0.1-29.5,0c-6.2-0.1-8.1-1.8-8.1-7.9c-0.1-38.9-0.1-77.8,0-116.7
		c0-6.5,2.3-8.6,8.8-8.7c8.1-0.1,16.2,0,24.3-0.1c5.6-0.1,9.5,2.2,12.3,7.1c7.6,12.8,15.5,25.3,23,38.1c2.5,4.2,3.6,3.8,5.9-0.1
		c7.3-12.5,15.1-24.6,22.3-37.1c3.2-5.4,7.3-8.1,13.6-7.9c7.9,0.2,15.8-0.1,23.7,0.1c6.4,0.2,8.7,2.5,8.7,8.9
		c0.1,38.5,0.1,77,0,115.5c0,7.1-1.9,8.8-9.1,8.8c-9.3,0.1-18.5,0-27.8,0c-7.7,0-8.8-1.1-8.8-8.6c0-14.6,0-29.2,0-43.9
		C720.2,219.1,719.8,219,719.4,218.8z"/>
	<path class="st0" d="M909.7,224.2c-1.7,2.4-1,4.6-1.1,6.6c-0.1,11,0.1,21.9-0.1,32.9c-0.1,6.1-2.1,8-8,8
		c-10.2,0.1-20.4-0.1-30.7,0.1c-5.1,0.1-7.4-2.5-7.6-7.3c-0.1-1.3-0.1-2.7-0.1-4c0-36.6,0-73.1,0-109.7c0-10.7,1.6-12.3,12.4-12.3
		c5.8,0,11.6,0.4,17.3-0.1c8.3-0.6,13.6,2.5,17.8,9.8c8.2,14.6,17.3,28.6,26.2,43.1c1.9-1.5,1.2-3.3,1.2-4.8
		c0.1-12.9,0-25.8,0.1-38.7c0-7.3,1.9-9.2,9.3-9.3c9.3-0.1,18.5-0.1,27.8,0c6.6,0.1,8.6,2.1,8.6,8.8c0.1,38.7,0.1,77.3,0,116
		c0,6.9-1.7,8.4-8.6,8.5c-8.5,0.1-17-0.2-25.5,0.1c-5,0.1-8.3-1.9-11-6c-8.1-12.4-16.4-24.7-24.7-37
		C912.1,227.4,911,225.9,909.7,224.2z"/>
	<path class="st0" d="M1005.8,205c0-18.5,0-36.9,0-55.4c0-9.2,2-11.3,11.3-11.1c20.2,0.3,40.5-1.2,60.7,1
		c17.3,1.9,32.4,8.4,43.5,22.3c4.6,5.7,7.5,12.4,8,19.5c1.2,16.7,1.9,33.5-0.3,50.1c-1.9,14.8-10.8,25.2-23.8,32.1
		c-10,5.4-20.8,8.1-32.2,8.2c-19.3,0.1-38.6,0.1-57.9,0.1c-7.7,0-9.4-1.6-9.4-9.6C1005.7,243.1,1005.8,224.1,1005.8,205z
		 M1054.7,205c0,6.2,0,12.3,0,18.5c0,11.1,0,11.1,11.1,10.6c1,0,1.9-0.1,2.9-0.3c6.5-1.2,10.6-5.3,10.8-11.7
		c0.3-11.2,0.3-22.3,0-33.5c-0.2-6.9-4.6-11-11.4-11.5c-2.9-0.2-5.8,0-8.7-0.1c-3.6-0.2-4.7,1.6-4.7,4.9
		C1054.8,189.6,1054.8,197.3,1054.7,205z"/>
	<path class="st0" d="M834.1,380.6c0-23.9,0-47.7,0-71.6c0-9.6,1.6-11.2,11-11.2c13.5,0,27,0,40.5,0c8.2,0,10.5,2.2,10.5,10.2
		c0,48.5,0,97,0,145.5c0,8.3-2.4,10.8-10.6,10.9c-13.9,0.2-27.8,0.2-41.7,0c-7.4-0.1-9.7-2.5-9.7-9.8
		C834,429.9,834.1,405.2,834.1,380.6z"/>
	<path class="st0" d="M789.1,205c0-18.8,0-37.7,0-56.5c0-7.9,2-9.9,9.9-10c10.4-0.1,20.8-0.1,31.2,0c7,0.1,9.1,2,9.1,8.9
		c0.1,38.6,0.1,77.3,0,115.9c0,6.8-1.7,8.4-8.7,8.4c-11,0.1-22,0.1-33,0c-6.8,0-8.6-1.7-8.6-8.6C789.1,243.8,789.1,224.4,789.1,205z
		"/>
	<path class="st0" d="M1177,273c-19.2,0-33.7-14.7-33.5-33.7c0.2-19.6,14.7-34.1,34.1-33.9c19.2,0.1,33.5,14.6,33.4,33.9
		C1210.9,258.8,1196.6,273,1177,273z M1201.4,239.5c0-14.9-9.9-25.4-23.9-25.5c-14.1-0.1-24.3,10.5-24.4,25.1
		c0,14.9,9.8,25.2,24.1,25.3C1191.7,264.4,1201.4,254.5,1201.4,239.5z"/>
	<path class="st0" d="M1229,243c0-7.5-0.1-15,0-22.5c0.1-3.4-0.9-5.6-4.8-5.5c-2.6,0-4.4-1-4.5-4.1c-0.1-3.3,1.8-4.5,4.7-4.4
		c3.6,0.2,4.3-2,4.9-5c3.2-13.8,17.2-20,29.8-13.5c2,1,3.6,2.2,3.7,4.7c0.1,3.2-0.7,5.1-4.3,3.3c-3.8-1.9-7.8-2.1-11.9-1.6
		c-3.6,0.4-6.1,2.4-7.3,5.7c-1.4,3.8-0.6,6.5,4.2,6.4c2.9-0.1,5.8,0,8.7,0.1c2.6,0.1,3.8,1.5,3.8,4.1c0,2.5-1,4-3.6,4.2
		c-1,0.1-1.9,0.1-2.9,0.1c-11.7,0-11-1.1-11,11.5c0,12.3,0.1,24.6-0.1,36.9c0,3.5,1.5,8.4-4.9,8.3c-6.1-0.1-4.5-4.7-4.6-8
		C1228.9,256.8,1229,249.9,1229,243z"/>
</g>
<image style="overflow:visible;" width="1146" height="1153" xlink:href="../../../../../../../logo-art.png"  transform="matrix(0.4155 0 0 0.4155 75.8283 66.4622)">
</image>
</svg>
